<svg width="20" height="20" viewBox="0 0 20 20" fill="none" xmlns="http://www.w3.org/2000/svg">
<g clip-path="url(#clip0_24_417)">
<path d="M19.9989 15.0678L19.9934 15.6722C19.9501 16.2158 19.6133 16.4223 19.105 16.4219L18.7057 16.4074C18.7065 16.0044 18.5254 15.5735 18.2976 15.2457C17.2509 13.74 14.8914 14.1558 14.4173 15.9586C14.3769 16.1121 14.361 16.2639 14.3341 16.4191C14.097 16.4447 13.8358 16.4238 13.5965 16.4239L7.18252 16.4237C7.1504 16.3378 7.15975 16.2177 7.14031 16.124C6.60747 13.5576 3.00808 13.8379 2.79964 16.425L2.1126 16.4245C1.97579 16.4242 1.81027 16.4411 1.67904 16.403C0.983866 16.2013 0.929883 15.7074 0.929286 15.1175L0.928124 3.94212C0.928218 3.63154 0.913131 3.31276 0.933578 3.0034C0.963061 2.55724 1.37211 2.13859 1.80898 2.07993C1.93593 2.06284 2.06992 2.07038 2.19805 2.06999L2.84406 2.06893L13.1477 2.06716C13.2732 2.06697 13.4071 2.0579 13.5317 2.07121C13.9445 2.11531 14.379 2.46755 14.426 2.89538L14.4285 2.91906C14.4562 3.15058 14.4399 3.3964 14.4399 3.63021L14.4374 12.9471C14.4372 13.2737 14.4192 13.6122 14.4391 13.9373C14.4611 14.2959 15.003 14.2391 15.0377 13.877C15.0621 13.6225 15.0442 13.3501 15.044 13.0939L15.044 6.72724C15.2147 6.72704 15.4036 6.71189 15.5722 6.73321C16.4541 6.84461 16.5661 7.71779 16.7508 8.39969L17.1889 9.95186C17.3786 10.6138 17.3587 10.7847 17.9848 11.1046L18.6787 11.4406C19.492 11.8174 20 12.0112 20.0002 13.0631L19.9989 15.0678ZM6.48413 4.4508C6.30903 4.47594 6.26321 4.70573 6.20352 4.84659L4.3169 9.91357C4.14918 10.4324 4.63297 10.3265 4.95839 10.3249L9.02893 10.3242L10.7992 10.3245C11.2715 10.3239 11.2434 10.1895 11.2309 9.76427L11.2197 9.41808C11.076 7.1083 9.27412 5.033 7.02859 4.52251C6.85078 4.4821 6.66759 4.44236 6.48413 4.4508Z" fill="#2C2826"/>
<path d="M8.95509 9.72336L5.01123 9.71727L6.74333 5.05786C8.72874 5.55641 10.1541 6.94361 10.5734 8.98687C10.6241 9.23368 10.6376 9.47553 10.6667 9.7241L8.95509 9.72336ZM7.05512 6.96419C6.48093 7.12617 6.60322 7.92498 7.2341 7.84534C7.78343 7.67629 7.66166 6.93894 7.05512 6.96419ZM8.07614 8.24293C7.5135 8.33639 7.47659 9.10598 8.10492 9.13009C8.66297 9.0607 8.69101 8.26029 8.07614 8.24293Z" fill="#2C2826"/>
<path d="M5.08143 18.0803C3.64707 18.095 2.86037 16.5438 3.79798 15.4685C4.09972 15.1224 4.46994 14.9759 4.92012 14.9444C5.73176 14.8909 6.50158 15.5117 6.56551 16.3341C6.63557 17.2349 5.99121 18.015 5.08143 18.0803Z" fill="#2C2826"/>
<path d="M16.72 18.0752C14.5774 18.2314 14.2889 15.2222 16.333 14.9434C17.7555 14.781 18.6262 16.3676 17.7707 17.477C17.5084 17.8172 17.1411 18.0193 16.72 18.0752Z" fill="#2C2826"/>
</g>
<defs>
<clipPath id="clip0_24_417">
<rect width="20" height="20" fill="white"/>
</clipPath>
</defs>
</svg>
