<svg width="164" height="23" viewBox="0 0 164 23" fill="none" xmlns="http://www.w3.org/2000/svg">
<path d="M13.9598 3.27686H3.10644C2.16618 3.27686 1.38432 4.00056 1.31181 4.93803L0.381519 16.9642C0.251902 18.6398 2.28565 19.5632 3.46185 18.3628L15.2455 6.33662C16.3616 5.19749 15.5546 3.27686 13.9598 3.27686Z" fill="#2C2826"/>
<path d="M156.957 4.04793H163.551V18.6102H156.957V17.9531C156.957 17.8479 156.854 17.8479 156.828 17.8479C156.803 17.8479 156.777 17.8479 156.751 17.8742C155.953 18.6891 155.051 19.0834 154.021 19.0834C151.059 19.0834 148.896 15.7976 148.896 11.4605C148.896 7.25479 151.342 3.83765 154.356 3.83765H154.382C155.283 3.83765 156.081 4.15308 156.751 4.78393C156.777 4.81022 156.803 4.81022 156.828 4.81022C156.854 4.81022 156.957 4.78393 156.957 4.67879V4.04793ZM156.957 14.0628V8.83193C156.957 8.54279 156.725 8.3325 156.442 8.3325C156.159 8.3325 155.953 8.54279 155.953 8.83193V14.0628C155.953 14.3519 156.159 14.5622 156.442 14.5622C156.725 14.5622 156.957 14.3519 156.957 14.0628Z" fill="#2C2826"/>
<path d="M144.322 12.8012L140.742 13.3007C140.433 13.327 140.33 13.6161 140.33 13.8001C140.33 13.8527 140.355 14.2995 140.793 14.2995C140.819 14.2995 140.845 14.2995 140.87 14.2995L148.031 13.2744V18.6104H138.14C135.771 18.6104 133.865 16.6652 133.865 14.247C133.865 12.0652 135.462 10.1464 137.574 9.85724L141.231 9.33152C141.566 9.30524 141.643 9.04238 141.643 8.85838C141.643 8.80581 141.592 8.33267 141.231 8.33267C141.18 8.33267 141.154 8.35895 141.102 8.35895L133.865 9.3841V4.0481H143.755C146.125 4.0481 148.031 6.01952 148.031 8.43781C148.031 10.6195 146.434 12.4595 144.322 12.8012Z" fill="#2C2826"/>
<path d="M128.853 12.8012L125.273 13.3007C124.964 13.327 124.861 13.6161 124.861 13.8001C124.861 13.8527 124.887 14.2995 125.325 14.2995C125.351 14.2995 125.376 14.2995 125.402 14.2995L132.562 13.2744V18.6104H122.672C120.303 18.6104 118.397 16.6652 118.397 14.247C118.397 12.0652 119.993 10.1464 122.105 9.85724L125.763 9.33152C126.098 9.30524 126.175 9.04238 126.175 8.85838C126.175 8.80581 126.123 8.33267 125.763 8.33267C125.711 8.33267 125.685 8.35895 125.634 8.35895L118.397 9.3841V4.0481H128.287C130.656 4.0481 132.562 6.01952 132.562 8.43781C132.562 10.6195 130.965 12.4595 128.853 12.8012Z" fill="#2C2826"/>
<path d="M117.041 3.91657C116.912 4.83657 116.423 5.59886 115.727 6.09829C115.032 6.59771 114.336 6.75543 113.796 6.75543C113.615 6.75543 113.461 6.72914 113.281 6.70286C112.379 6.51886 111.632 6.04571 111.143 5.336C110.628 4.62629 110.499 3.91657 110.499 3.39085C110.499 3.20686 110.525 3.02286 110.55 2.83886C110.679 1.91886 111.169 1.15657 111.864 0.630857C112.559 0.131428 113.255 0 113.77 0C113.95 0 114.13 0.0262854 114.336 0.0525707C115.238 0.183999 115.985 0.683427 116.474 1.39314C116.964 2.10286 117.092 2.81257 117.092 3.33829C117.092 3.52229 117.067 3.70628 117.041 3.91657ZM117.092 18.6103H110.499V7.75428H117.092V18.6103Z" fill="#2C2826"/>
<path d="M104.61 3.83765C107.572 3.83765 109.736 7.12336 109.736 11.4605C109.736 15.6399 107.289 19.0834 104.25 19.0834C103.348 19.0834 102.576 18.7679 101.88 18.1108C101.855 18.0845 101.829 18.0845 101.803 18.0845C101.777 18.0845 101.674 18.1108 101.674 18.2159V22.9736H95.0808V4.04793H101.674V4.94165C101.674 5.04679 101.777 5.04679 101.803 5.04679C101.829 5.04679 101.855 5.04679 101.88 5.0205C102.653 4.23193 103.554 3.83765 104.61 3.83765ZM102.679 14.0628V8.83193C102.679 8.54279 102.447 8.3325 102.164 8.3325C101.88 8.3325 101.674 8.54279 101.674 8.83193V14.0628C101.674 14.3519 101.88 14.5622 102.164 14.5622C102.447 14.5622 102.679 14.3519 102.679 14.0628Z" fill="#2C2826"/>
<path d="M80.5049 3.83765H80.5306C84.6515 3.83765 87.9997 7.25479 87.9997 11.4605C87.9997 15.6399 84.6 19.0834 80.5049 19.0834C76.384 19.0834 73.0358 15.6399 73.0358 11.4605C73.0358 7.25479 76.384 3.83765 80.5049 3.83765ZM81.02 14.0628V8.83193C81.02 8.54279 80.8139 8.3325 80.5306 8.3325C80.2473 8.3325 80.0413 8.54279 80.0413 8.83193V14.0628C80.0413 14.3519 80.2473 14.5622 80.5306 14.5622C80.8139 14.5622 81.02 14.3519 81.02 14.0628Z" fill="#2C2826"/>
<path d="M65.6809 4.04793H72.2743V16.1394C72.2743 21.2388 69.6987 22.9736 65.5521 22.9736H63.9037V19.5565H65.5521C65.6293 19.5565 65.6809 19.5302 65.6809 19.4514V17.9531C65.6809 17.8479 65.5778 17.8479 65.5521 17.8479C65.5263 17.8479 65.5006 17.8479 65.4748 17.8742C64.6764 18.6891 63.775 19.0834 62.7447 19.0834C59.7828 19.0834 57.6194 15.7976 57.6194 11.4605C57.6194 7.25479 60.0662 3.83765 63.0796 3.83765H63.1053C64.0068 3.83765 64.8052 4.15308 65.4748 4.78393C65.5006 4.81022 65.5263 4.81022 65.5521 4.81022C65.5778 4.81022 65.6809 4.78393 65.6809 4.67879V4.04793ZM65.6809 14.0628V8.83193C65.6809 8.54279 65.4491 8.3325 65.1657 8.3325C64.8824 8.3325 64.6764 8.54279 64.6764 8.83193V14.0628C64.6764 14.3519 64.8824 14.5622 65.1657 14.5622C65.4491 14.5622 65.6809 14.3519 65.6809 14.0628Z" fill="#2C2826"/>
<path d="M43.4812 3.83765H43.507C47.6279 3.83765 50.9761 7.25479 50.9761 11.4605C50.9761 15.6399 47.5764 19.0834 43.4812 19.0834C39.3604 19.0834 36.0121 15.6399 36.0121 11.4605C36.0121 7.25479 39.3604 3.83765 43.4812 3.83765ZM43.9964 14.0628V8.83193C43.9964 8.54279 43.7903 8.3325 43.507 8.3325C43.2237 8.3325 43.0176 8.54279 43.0176 8.83193V14.0628C43.0176 14.3519 43.2237 14.5622 43.507 14.5622C43.7903 14.5622 43.9964 14.3519 43.9964 14.0628Z" fill="#2C2826"/>
<path d="M28.6574 4.04793H35.2508V16.1394C35.2508 21.2388 32.6752 22.9736 28.5286 22.9736H26.8802V19.5565H28.5286C28.6059 19.5565 28.6574 19.5302 28.6574 19.4514V17.9531C28.6574 17.8479 28.5543 17.8479 28.5286 17.8479C28.5028 17.8479 28.4771 17.8479 28.4513 17.8742C27.6529 18.6891 26.7515 19.0834 25.7212 19.0834C22.7594 19.0834 20.5959 15.7976 20.5959 11.4605C20.5959 7.25479 23.0427 3.83765 26.0561 3.83765H26.0818C26.9833 3.83765 27.7817 4.15308 28.4513 4.78393C28.4771 4.81022 28.5028 4.81022 28.5286 4.81022C28.5543 4.81022 28.6574 4.78393 28.6574 4.67879V4.04793ZM28.6574 14.0628V8.83193C28.6574 8.54279 28.4256 8.3325 28.1423 8.3325C27.8589 8.3325 27.6529 8.54279 27.6529 8.83193V14.0628C27.6529 14.3519 27.8589 14.5622 28.1423 14.5622C28.4256 14.5622 28.6574 14.3519 28.6574 14.0628Z" fill="#2C2826"/>
</svg>
